# xmcd CD database file
#
# Track frame offsets:
#	150
#	11937
#	27600
#	39775
#	53387
#	66150
#	77400
#	93525
#	104937
#	123150
#	134487
#	147087
#	160275
#	176838
#	188388
#	201138
#	216513
#	227313
#	240813
#	252363
#	264975
#	277263
#	288150
#	308388
#	321363
#	336976
#
# Disc length: 4661 seconds
#
# Revision: 1
# Processed by: cddbd v1.5.2PL0 Copyright (c) Steve Scherf et al.
# Submitted via: CDex 1.78
#
DISCID=7212331a
DTITLE=Dinah Washington and Quincy Jones - The Complete Sessions CD2
DYEAR=1900
DGENRE=Jazz
TTITLE0=Somebody Loves Me
TTITLE1=Perdido
TTITLE2=Caravan
TTITLE3=Is You Is or Is You Ain't My Baby?
TTITLE4=They Didn't Believe Me
TTITLE5=But Not for Me
TTITLE6=You're Crying
TTITLE7=Ev'ry Time We Say Goodbye
TTITLE8=I'll Close My Eyes
TTITLE9=Makin' Woopie
TTITLE10=Never Let Me Go
TTITLE11=Bargain Day
TTITLE12=Blues In The Night
TTITLE13=Don't Explain
TTITLE14=In The Wee Small Hours of the Morning
TTITLE15=Blue Gardenia
TTITLE16=Bewitched, Bothered and Bewildered
TTITLE17=Am I Blue?
TTITLE18=Everybody's Somebody's Fool
TTITLE19=If I Should Lose You
TTITLE20=Make The Town and Tell The People
TTITLE21=You Do Something To Me
TTITLE22=So In Love
TTITLE23=Secret Love
TTITLE24=Mood Indigo
TTITLE25=God Bless The Child
EXTD=
EXTT0=
EXTT1=
EXTT2=
EXTT3=
EXTT4=
EXTT5=
EXTT6=
EXTT7=
EXTT8=
EXTT9=
EXTT10=
EXTT11=
EXTT12=
EXTT13=
EXTT14=
EXTT15=
EXTT16=
EXTT17=
EXTT18=
EXTT19=
EXTT20=
EXTT21=
EXTT22=
EXTT23=
EXTT24=
EXTT25=
PLAYORDER=
